HIERARCHY
ROOT Hips
{
	OFFSET 0.000000 0.000000 0.000000
	CHANNELS 6 Xposition Yposition Zposition Zrotation Yrotation Xrotation 
	JOINT LHipJoint
	{
		OFFSET 0.000000 0.000000 0.000000
		CHANNELS 3 Zrotation Yrotation Xrotation
		JOINT LeftUpLeg
		{
			OFFSET 1.363060 -1.794630 0.839290
			CHANNELS 3 Zrotation Yrotation Xrotation
			JOINT LeftLeg
			{
				OFFSET 2.448110 -6.726130 0.000000
				CHANNELS 3 Zrotation Yrotation Xrotation
				JOINT LeftFoot
				{
					OFFSET 2.562200 -7.039590 0.000000
					CHANNELS 3 Zrotation Yrotation Xrotation
					JOINT LeftToeBase
					{
						OFFSET 0.157640 -0.433110 2.322550
						CHANNELS 3 Zrotation Yrotation Xrotation
						End Site
						{
							OFFSET 0.000000 0.000000 0.000000
						}
					}
				}
			}
		}
	}
	JOINT RHipJoint
	{
		OFFSET 0.000000 0.000000 0.000000
		CHANNELS 3 Zrotation Yrotation Xrotation
		JOINT RightUpLeg
		{
			OFFSET -1.305520 -1.794630 0.839290
			CHANNELS 3 Zrotation Yrotation Xrotation
			JOINT RightLeg
			{
				OFFSET -2.542530 -6.985550 0.000000
				CHANNELS 3 Zrotation Yrotation Xrotation
				JOINT RightFoot
				{
					OFFSET -2.568260 -7.056230 0.000000
					CHANNELS 3 Zrotation Yrotation Xrotation
					JOINT RightToeBase
					{
						OFFSET -0.164730 -0.452590 2.363150
						CHANNELS 3 Zrotation Yrotation Xrotation
						End Site
						{
							OFFSET 0.000000 0.000000 0.000000
						}
					}
				}
			}
		}
	}
	JOINT LowerBack
	{
		OFFSET 0.000000 0.000000 0.000000
		CHANNELS 3 Zrotation Yrotation Xrotation
		JOINT Spine
		{
			OFFSET 0.028270 2.035590 -0.193380
			CHANNELS 3 Zrotation Yrotation Xrotation
			JOINT Spine1
			{
				OFFSET 0.056720 2.048850 -0.042750
				CHANNELS 3 Zrotation Yrotation Xrotation
				JOINT Neck
				{
					OFFSET 0.000000 0.000000 0.000000
					CHANNELS 3 Zrotation Yrotation Xrotation
					JOINT Neck1
					{
						OFFSET -0.054170 1.746240 0.172020
						CHANNELS 3 Zrotation Yrotation Xrotation
						JOINT Head
						{
							OFFSET 0.104070 1.761360 -0.123970
							CHANNELS 3 Zrotation Yrotation Xrotation
							End Site
							{
								OFFSET 0.000000 0.000000 0.000000
							}
						}
					}
				}
				JOINT LeftShoulder
				{
					OFFSET 0.000000 0.000000 0.000000
					CHANNELS 3 Zrotation Yrotation Xrotation
					JOINT LeftArm
					{
						OFFSET 3.362410 1.200890 -0.311210
						CHANNELS 3 Zrotation Yrotation Xrotation
						JOINT LeftForeArm
						{
							OFFSET 4.983000 -0.000000 -0.000000
							CHANNELS 3 Zrotation Yrotation Xrotation
							JOINT LeftHand
							{
								OFFSET 3.483560 -0.000000 -0.000000
								CHANNELS 3 Zrotation Yrotation Xrotation
								JOINT LeftFingerBase
								{
									OFFSET 0.000000 0.000000 0.000000
									CHANNELS 3 Zrotation Yrotation Xrotation
									JOINT LeftHandIndex1
									{
										OFFSET 0.715260 -0.000000 -0.000000
										CHANNELS 3 Zrotation Yrotation Xrotation
										End Site
										{
											OFFSET 0.000000 0.000000 0.000000
										}
									}
								}
								JOINT LThumb
								{
									OFFSET 0.000000 0.000000 0.000000
									CHANNELS 3 Zrotation Yrotation Xrotation
									End Site
									{
										OFFSET 0.000000 0.000000 0.000000
									}
								}
							}
						}
					}
				}
				JOINT RightShoulder
				{
					OFFSET 0.000000 0.000000 0.000000
					CHANNELS 3 Zrotation Yrotation Xrotation
					JOINT RightArm
					{
						OFFSET -3.136600 1.374050 -0.404650
						CHANNELS 3 Zrotation Yrotation Xrotation
						JOINT RightForeArm
						{
							OFFSET -5.241900 -0.000000 -0.000000
							CHANNELS 3 Zrotation Yrotation Xrotation
							JOINT RightHand
							{
								OFFSET -3.444170 -0.000000 -0.000000
								CHANNELS 3 Zrotation Yrotation Xrotation
								JOINT RightFingerBase
								{
									OFFSET 0.000000 0.000000 0.000000
									CHANNELS 3 Zrotation Yrotation Xrotation
									JOINT RightHandIndex1
									{
										OFFSET -0.622530 -0.000000 -0.000000
										CHANNELS 3 Zrotation Yrotation Xrotation
										End Site
										{
											OFFSET 0.000000 0.000000 0.000000
										}
									}
								}
								JOINT RThumb
								{
									OFFSET 0.000000 0.000000 0.000000
									CHANNELS 3 Zrotation Yrotation Xrotation
									End Site
									{
										OFFSET 0.000000 0.000000 0.000000
									}
								}
							}
						}
					}
				}
			}
		}
	}
}
MOTION
Frames: 11
Frame Time: 0.008333
9.844007 17.851638 34.360807 -179.746625 -0.977525 -153.041118 8.849989 1.175624 -2.019945 -24.717334 -16.278479 -18.465606 -1.388237 4.430393 9.801899 0.725094 -1.428639 -17.057920 4.251700 -12.488100 -37.481100 -13.238491 -2.852265 -1.223915 31.236857 19.090257 -18.029894 1.383659 -4.816538 10.548408 -1.206485 -1.806817 -22.753208 -2.993800 10.685000 -31.224700 -2.178352 0.235768 -27.186224 1.617939 -1.013970 -5.604313 -1.133565 -1.368876 13.677090 -9.071303 -1.299037 -1.359286 11.709192 -3.992807 -0.467102 2.151100 -2.028200 -3.409700 15.334811 -3.125841 0.466862 -107.561168 -9.540924 31.245063 9.299501 -8.643687 -0.990593 -1.848841 1.268906 9.273179 19.961744 -8.901124 -3.933600 -7.125000 0.000000 0.000000 -3.556900 19.433300 2.175000 -10.629127 -0.716485 -0.265423 100.463151 7.142112 13.017797 -8.606256 16.293859 -1.741389 1.176315 4.109736 6.125328 -11.193115 -47.604128 9.412300 7.125000 0.000000 0.000000 62.128700 -75.271900 -47.995400 
9.841154 17.852406 34.356857 -179.756646 -0.942210 -153.099396 8.847847 1.177089 -2.007037 -24.728769 -16.505820 -18.286103 -1.402150 4.402359 9.741534 0.764166 -1.173614 -17.199712 4.259500 -12.498000 -37.517200 -13.227813 -2.861918 -1.236978 31.210380 18.979634 -17.987508 1.378673 -4.828088 10.606078 -1.216077 -1.785936 -22.814995 -3.096500 10.849700 -31.774500 -2.158512 0.280781 -27.172401 1.605782 -0.961413 -5.603773 -1.155681 -1.340552 13.655037 -9.067553 -1.296393 -1.256436 11.716846 -4.008989 -0.533921 2.162100 -2.040400 -3.459900 15.330742 -3.133565 0.469502 -107.607014 -9.513963 31.286504 9.289650 -8.630682 -0.991698 -1.866938 1.330472 9.453893 20.207163 -9.276820 -4.157900 -7.125000 0.000000 0.000000 -3.372500 18.957800 2.097500 -10.632747 -0.726541 -0.262261 100.486169 7.167237 12.908504 -8.570903 16.241855 -1.734243 1.198877 4.136221 6.213244 -11.435461 -48.029424 9.674000 7.125000 0.000000 0.000000 63.629600 -75.532400 -49.610400 
9.846311 17.850980 34.360807 -179.741764 -0.939691 -152.992820 8.851867 1.164647 -2.021670 -24.673987 -16.367747 -18.495404 -1.391849 4.450894 9.842848 0.742357 -1.363032 -17.188870 4.274700 -12.517300 -37.587300 -13.238019 -2.847147 -1.217712 31.226050 19.120204 -18.123358 1.386586 -4.845157 10.594378 -1.209706 -1.878810 -22.827424 -3.168200 10.962400 -32.153300 -2.213336 0.273503 -27.269184 1.616050 -0.970037 -5.615296 -1.091678 -1.350432 13.660280 -9.065041 -1.282955 -1.218699 11.726028 -3.995939 -0.612284 2.167200 -2.037300 -3.499400 15.336638 -3.145702 0.468427 -107.632949 -9.549389 31.218655 9.296652 -8.659228 -1.002752 -1.856325 1.463548 9.451456 20.333736 -10.311710 -4.653700 -7.125000 0.000000 0.000000 -3.315200 17.700800 2.153900 -10.625096 -0.728622 -0.262090 100.524169 7.308288 12.694966 -8.510598 16.138970 -1.718142 1.241237 4.157116 6.465982 -11.776268 -48.395003 10.015300 7.125000 0.000000 0.000000 64.902600 -75.801000 -51.044000 
9.847519 17.849224 34.360697 -179.701372 -0.959520 -152.982436 8.856079 1.162394 -2.026917 -24.630258 -16.350061 -18.511069 -1.394181 4.445501 9.827745 0.744569 -1.296932 -17.136747 4.320300 -12.574900 -37.797300 -13.246145 -2.840874 -1.208434 31.244091 19.226639 -18.103316 1.392128 -4.808861 10.487258 -1.202635 -1.869588 -22.767828 -3.069800 10.807200 -31.632500 -2.176439 0.291073 -27.297723 1.616790 -0.963614 -5.616550 -1.092147 -1.347587 13.663868 -9.062742 -1.272739 -1.230480 11.712285 -3.979978 -0.584445 2.160100 -2.028400 -3.486800 15.344958 -3.146245 0.463705 -107.625842 -9.559071 31.390249 9.344692 -8.722971 -1.008990 -1.954700 1.396137 9.143836 20.976105 -9.802021 -4.577700 -7.125000 0.000000 0.000000 -2.784600 18.262700 1.773800 -10.623779 -0.722042 -0.258536 100.555210 7.420515 12.429341 -8.437084 16.018185 -1.694045 1.267319 4.151849 6.775844 -11.812441 -48.396937 10.047700 7.125000 0.000000 0.000000 64.895700 -75.817100 -51.055000 
9.848945 17.846042 34.360587 -179.700767 -0.916364 -152.977302 8.855958 1.165754 -2.029850 -24.650634 -16.274292 -18.516950 -1.396232 4.423070 9.772366 0.741346 -1.287414 -17.084921 4.404600 -12.680100 -38.182600 -13.245516 -2.840619 -1.206404 31.234324 19.231783 -18.128854 1.388304 -4.822340 10.517161 -1.204342 -1.792905 -22.759557 -2.997500 10.691000 -31.244600 -2.187588 0.319212 -27.327580 1.611931 -0.926211 -5.616568 -1.076484 -1.333570 13.670479 -9.069039 -1.252527 -1.260813 11.693575 -3.947776 -0.547409 2.149500 -2.010800 -3.466700 15.337411 -3.147937 0.464787 -107.617715 -9.589780 31.454852 9.311744 -8.681097 -1.007510 -1.849301 1.437672 9.118845 20.191415 -10.248464 -4.587300 -7.125000 0.000000 0.000000 -3.424700 17.795100 2.218200 -10.614844 -0.714833 -0.256770 100.552297 7.508723 12.215869 -8.361872 15.887047 -1.664463 1.271096 4.125786 6.970189 -11.627530 -48.014136 9.840100 7.125000 0.000000 0.000000 63.480000 -75.608500 -49.557600 
9.849603 17.843079 34.360039 -179.723170 -0.815471 -152.895735 8.855632 1.164598 -2.031001 -24.687678 -16.227019 -18.570485 -1.396324 4.401720 9.705971 0.729035 -1.384606 -17.061782 4.360800 -12.625600 -37.982600 -13.240339 -2.842905 -1.207777 31.192733 19.132114 -18.300060 1.379246 -4.875333 10.627170 -1.203149 -1.677811 -22.725787 -3.080100 10.823500 -31.687000 -2.238800 0.351099 -27.453051 1.605744 -0.878524 -5.620413 -1.045501 -1.320071 13.700116 -9.075142 -1.227055 -1.277663 11.676433 -3.914062 -0.499462 2.137500 -1.993300 -3.446700 15.332781 -3.152173 0.462134 -107.649860 -9.627191 31.424660 9.325827 -8.695253 -1.007009 -1.824270 1.368070 8.990388 19.878053 -9.801285 -4.310500 -7.125000 0.000000 0.000000 -3.654800 18.363400 2.322000 -10.607463 -0.708804 -0.255644 100.532255 7.558646 12.168673 -8.331783 15.828659 -1.649990 1.264513 4.102139 6.987429 -11.488473 -47.622660 9.671100 7.125000 0.000000 0.000000 62.044600 -75.404400 -48.061100 
9.850920 17.841104 34.361136 -179.701311 -0.798284 -152.809479 8.856351 1.155808 -2.033402 -24.625474 -16.203630 -18.713650 -1.389928 4.436162 9.771896 0.714604 -1.523232 -17.076381 4.173700 -12.388000 -37.118900 -13.235694 -2.843112 -1.207451 31.203254 19.040623 -18.463330 1.369564 -4.925336 10.729614 -1.209646 -1.485026 -22.737107 -3.086000 10.833000 -31.718700 -2.239365 0.371106 -27.548450 1.603564 -0.865268 -5.630438 -1.048799 -1.317045 13.700661 -9.068408 -1.219493 -1.260316 11.692032 -3.912827 -0.464235 2.140900 -1.993500 -3.437000 15.334023 -3.152355 0.462454 -107.642791 -9.627799 31.318853 9.325270 -8.696545 -1.007248 -1.825618 1.387481 9.149083 19.946898 -9.892400 -4.367900 -7.125000 0.000000 0.000000 -3.604300 18.246200 2.299100 -10.610103 -0.710565 -0.257822 100.563691 7.535439 12.268129 -8.364099 15.880097 -1.660578 1.260007 4.099074 6.890856 -11.526134 -47.565008 9.695400 7.125000 0.000000 0.000000 61.793700 -75.396400 -47.830200 
9.852237 17.843408 34.361795 -179.651407 -0.793250 -152.849217 8.852301 1.157367 -2.033216 -24.563250 -16.157966 -18.745458 -1.385245 4.480785 9.892695 0.720842 -1.527836 -17.153927 4.077500 -12.262900 -36.668400 -13.232452 -2.847878 -1.210822 31.267873 18.983603 -18.435382 1.361977 -4.922911 10.738412 -1.215998 -1.282945 -22.717113 -2.983200 10.667800 -31.167400 -2.200221 0.389935 -27.484094 1.600096 -0.853300 -5.632486 -1.066361 -1.306952 13.659700 -9.041195 -1.221943 -1.225744 11.711674 -3.922315 -0.486552 2.146100 -2.000800 -3.451500 15.340925 -3.157657 0.462087 -107.598739 -9.632258 31.382857 9.339788 -8.722763 -1.011766 -1.821642 1.377317 9.082141 19.906489 -9.855237 -4.340400 -7.125000 0.000000 0.000000 -3.636200 18.296900 2.315500 -10.618135 -0.710451 -0.260106 100.628499 7.494183 12.425298 -8.412741 15.958328 -1.676070 1.240133 4.104844 6.774698 -11.376142 -47.643169 9.576900 7.125000 0.000000 0.000000 62.182400 -75.365200 -48.141900 
9.852018 17.844725 34.362563 -179.659229 -0.743421 -152.823191 8.855921 1.150929 -2.031335 -24.563979 -16.240508 -18.772872 -1.390155 4.501337 9.932103 0.741227 -1.393470 -17.237579 4.150300 -12.357800 -37.009600 -13.234991 -2.844260 -1.206948 31.220350 18.986825 -18.517399 1.360427 -4.921640 10.713583 -1.202575 -1.233463 -22.594033 -2.940600 10.598200 -30.936400 -2.219698 0.409192 -27.470806 1.594239 -0.830801 -5.646946 -1.060517 -1.297924 13.597166 -8.997635 -1.216672 -1.210282 11.707371 -3.914677 -0.513842 2.134900 -2.000200 -3.463400 15.341381 -3.159931 0.461622 -107.570542 -9.615238 31.402328 9.319187 -8.690489 -1.006665 -1.808131 1.372881 9.166376 19.800915 -9.794097 -4.289200 -7.125000 0.000000 0.000000 -3.717400 18.376400 2.360800 -10.617373 -0.708705 -0.264411 100.661344 7.494817 12.460114 -8.422112 15.965810 -1.676536 1.229659 4.094138 6.795300 -11.195126 -47.485454 9.402800 7.125000 0.000000 0.000000 61.695400 -75.229200 -47.566600 
9.852676 17.844176 34.361246 -179.668994 -0.735049 -152.795953 8.859125 1.147116 -2.030288 -24.558657 -16.325999 -18.750234 -1.395357 4.488657 9.893477 0.750850 -1.324874 -17.270640 4.228700 -12.458700 -37.374700 -13.237797 -2.841471 -1.204998 31.199879 19.008812 -18.552012 1.364284 -4.916073 10.684975 -1.192713 -1.314809 -22.539903 -2.955700 10.623000 -31.018600 -2.237672 0.415231 -27.524033 1.591009 -0.819884 -5.647676 -1.057022 -1.295970 13.614210 -8.948031 -1.222860 -1.202138 11.720081 -3.922719 -0.541827 2.128600 -2.007300 -3.477300 15.344130 -3.169990 0.460975 -107.555970 -9.668692 31.335318 9.323267 -8.694698 -1.006002 -1.797910 1.355316 9.049847 19.684813 -9.710674 -4.224500 -7.125000 0.000000 0.000000 -3.807100 18.487600 2.408700 -10.614453 -0.708147 -0.264776 100.683207 7.522348 12.443190 -8.414622 15.948177 -1.671864 1.231476 4.072801 6.816614 -11.183298 -47.170354 9.352700 7.125000 0.000000 0.000000 60.517200 -75.094400 -46.387200 
9.854212 17.843408 34.359929 -179.637474 -0.779260 -152.785801 8.862007 1.145058 -2.034390 -24.502719 -16.347090 -18.739299 -1.396356 4.474338 9.857112 0.746216 -1.331181 -17.224812 4.200100 -12.422000 -37.241600 -13.241689 -2.836110 -1.201957 31.232921 19.096744 -18.492276 1.370348 -4.889055 10.615350 -1.197796 -1.341044 -22.594322 -2.903900 10.537800 -30.736600 -2.205012 0.421801 -27.584953 1.588568 -0.815589 -5.632796 -1.078498 -1.294429 13.690934 -8.930507 -1.233455 -1.244565 11.733622 -3.926977 -0.539447 2.129700 -2.008400 -3.469700 15.345647 -3.175794 0.463912 -107.504399 -9.750894 31.493274 9.297685 -8.650343 -0.999282 -1.798959 1.352206 9.028260 19.676036 -9.666255 -4.204600 -7.125000 0.000000 0.000000 -3.811800 18.537900 2.407500 -10.615179 -0.706886 -0.264034 100.727217 7.559328 12.428602 -8.417448 15.950880 -1.669728 1.216812 4.058302 6.807210 -10.990495 -46.952717 9.161200 7.125000 0.000000 0.000000 59.845200 -74.922200 -45.619100 
